<?xml version="1.0" encoding="utf-8"?>
<!-- Generator: Adobe Illustrator 16.0.0, SVG Export Plug-In . SVG Version: 6.00 Build 0)  -->
<!DOCTYPE svg PUBLIC "-//W3C//DTD SVG 1.1//EN" "http://www.w3.org/Graphics/SVG/1.1/DTD/svg11.dtd">
<svg version="1.1" id="Layer_1" xmlns="http://www.w3.org/2000/svg" xmlns:xlink="http://www.w3.org/1999/xlink" x="0px" y="0px"
	 width="100px" height="100px" viewBox="0 0 100 100" enable-background="new 0 0 100 100" xml:space="preserve">
<path fill="#FFFFFF" d="M52.3,50.5c0.101,0.5-0.1,1.1,0,1.7c0,0.1,0,0.3,0.101,0.7c0,0.3,0.1,0.699,0.1,1.199
	c0,0.601-0.1,1.101-0.1,1.7c0,0.5,0,1,0,1.5s-0.2,1-0.2,1.601c0,0.1,0.1,0.199,0.1,0.399c0,0.101-0.1,0.101-0.1,0.2
	c0,0.2,0.1,0.5,0.1,0.7c0,1.3,0.101,2.5,0.2,3.899c0,0.801-0.1,2.2,0,3.101l0.1,0.1c0,0.101-0.1,0.3,0,0.5
	c0,0.101,0.101,0.601,0.2,0.9c0,0.1-0.1,0.3,0,0.5c0,0.1,0,0.3,0.101,0.7c0,0.3,0,0.399,0.1,0.8v0.2h0.1c0,0.5,0,1.1,0,1.6
	c0,1-0.1,2,0.101,2.9V75.6c0.1,0.101,0.1,0.2,0.1,0.5c0,0.301,0,0.4,0.101,0.801V77.1c0.199,0.2,0.1,1,0.399,1.4
	c0.7,0.2,1.4,0.2,2.4,0.2c0.1,0,0.3,0.1,0.5,0c0.1,0,0.1-0.101,0.2-0.101c0.5,0,1-0.1,1.5-0.1c1,0,2,0,3.199,0.1
	c0.2,0,0.4,0.2,0.7,0.2l0.101-0.1c0.199,0,0.3,0,0.5,0C63,78.7,63.1,78.6,63.3,78.6c0,0,0,0.101,0.101,0.101
	c0.6,0.1,2.1,0,2.699,0.3c0.101,0,0.2,0.2,0.2,0.2c0.2,0.1,0.4,0.2,0.601,0.3c0.1,0.1,0.1,0.2,0.199,0.2
	c0.101,0.1,0.2,0.1,0.301,0.1c0.1,0,0.199,0.2,0.199,0.2c0.101,0,0.301,0,0.301,0c0.1,0,0.199,0.2,0.199,0.2
	c0.101,0.1,0.2,0.1,0.301,0.1c0.399,0.3,0.8,0.9,1.199,1.4c0,0.3-0.199,0.8,0,0.899c0.101,0.9-0.399,1.601-1.1,2
	c-0.1,0.301-0.6,0.2-0.7,0.4c-0.5,0.6-2,0.5-3.3,0.4c-1.6,0-3.4-0.2-5.1-0.2c0,0,0,0.1-0.101,0.1c-0.3,0-0.7-0.1-1.2-0.1
	c0,0,0,0.1-0.1,0.1c-0.2,0-0.5-0.1-0.8-0.1c-0.2,0.1-1,0-1.5,0c0,0,0,0.1-0.101,0.1c-0.899,0-2.3,0-3.5,0
	C51.4,85.3,50.9,85.4,50.2,85.4c-0.2,0-0.4,0-0.6,0c0,0,0,0.1-0.1,0.1c-1,0-2.4-0.2-3.4-0.1h-0.2c-0.1,0.1-0.9,0.1-1.3,0.1
	c0,0,0,0.1-0.1,0.1c-0.7,0-1.5,0-2.3,0.101c-2.1,0.1-4,0.3-5.9-0.101c-0.1,0-0.2-0.1-0.3-0.1s-0.3,0-0.5,0c0,0,0-0.1-0.1-0.1
	c-0.3,0-0.5-0.2-0.8-0.4c-0.1,0,0-0.1-0.1-0.1S34.3,84.8,34.2,84.8c-0.7-0.3-1.7-0.5-2.1-1.1c0-1.2-0.2-2.601,0.6-3.2
	c0,0,0.2,0.1,0.2,0l0.1-0.2c0.1-0.1,0.2,0,0.4-0.1c0.1-0.101,0.2-0.3,0.3-0.3c0.1-0.101,0.2,0,0.4-0.101l0.1-0.2c0.1,0,0.2,0,0.2,0
	c0.1,0,0.2-0.199,0.2-0.199c0.6-0.101,1.5,0,2.2-0.101l0.1-0.1c0.1,0,0.4,0.1,0.5,0c0.2-0.2,1.1,0,1.6,0c0.1,0,0.2-0.101,0.4-0.101
	c0.5,0,1.4-0.1,2-0.199h0.2c0.2-0.2,0.5,0.1,0.7-0.101c0-0.1,0.3-0.1,0.6-0.2c1-0.199,1.9-0.199,2.7-0.3c0.4-1,0.2-2,0.1-3
	c0-1.1,0-2.1,0-3.1c0-2,0-4-0.1-6.101c-0.1-1-0.1-2-0.1-3c0-0.199,0-0.3,0-0.5c0-0.3,0-0.399-0.1-0.8v-0.2c-0.2-0.199,0-1.1,0-1.6
	l-0.1-0.1c0-0.2,0.1-0.801,0.1-1.2c0-0.101-0.1-0.101-0.1-0.2c0-1,0.1-2.1,0.2-3.2c0.2-1.899,0.4-4,0.2-6c-0.5-0.6-1.2-0.6-1.8-0.8
	c0,0,0-0.1-0.1-0.1h-0.3c-0.1-0.2-0.5-0.3-0.9-0.4c-0.2-0.1-0.6-0.3-0.9-0.4c-0.2-0.1-0.6-0.3-0.8-0.4c-0.2-0.1-0.3-0.1-0.5-0.2
	c0,0,0-0.1-0.1-0.1c-0.1,0-0.2-0.1-0.3-0.1c-0.3-0.1-0.7-0.3-1-0.5c-0.3-0.2-0.7-0.6-1.1-0.9c-0.5-0.5-1.1-1.1-1.7-1.8
	c-0.3-0.3-0.6-0.6-0.9-0.9c-0.2-0.3-0.3-0.6-0.5-0.9c-0.3-0.5-0.7-1-1-1.6c-0.1-0.2-0.3-0.3-0.4-0.6c0-0.1-0.3-0.5-0.3-0.7
	c0-0.1-0.1-0.2-0.1-0.2c-0.3-0.7-0.5-1.6-0.9-2.3c0-0.1-0.3-0.5-0.3-0.7c0-0.1-0.2-0.7-0.3-1c0-0.1-0.1-0.3-0.2-0.6
	c0-0.2-0.1-0.5-0.2-0.7c0-0.1-0.1-0.2-0.1-0.4c0-0.1-0.2-0.7-0.3-1.1c-0.1-0.3-0.1-0.6-0.2-0.9c0-0.2-0.1-0.5-0.2-0.7
	c0-0.2-0.1-0.9-0.1-1.2c0-0.3,0-0.4-0.1-0.8c0-0.1-0.1-0.1-0.1-0.1c0-0.2,0.1-0.4,0-0.6c0,0-0.1,0-0.1-0.1v-0.1c0-0.2,0-0.3-0.1-0.7
	c0,0-0.1,0-0.1-0.1v-0.1c-0.1-0.2-0.1-0.4-0.2-0.8c0-0.1-0.1-0.1-0.1-0.1c0-0.4,0.1-0.9,0.1-1.4c0,0-0.1,0-0.1-0.1
	c0-1,0.2-2.6,0.2-3.9c0-0.1-0.1-0.2-0.1-0.4c0-0.2,0.1-0.7,0.1-1c0,0-0.1,0-0.1-0.1c0-0.5-0.1-1,0-1.7c0-0.2,0.1-0.3,0.2-0.6
	c0.1-0.5,0-1,0.1-1.4c0.1-0.3,0.4-0.6,0.5-0.9v-0.2h0.1v-0.2c0,0,0.3-0.1,0.4-0.3c1.2,0.1,2.4,0.1,3.6,0.2c1.1,0,2.3,0.1,3.5,0.1
	c0.7,0,1.4-0.2,2.1-0.2c1,0,2.1,0.2,3.1,0.2c0.7,0,1.4-0.1,2.1-0.1c1.2,0,2.4,0.2,3.6,0.3c2.3,0.1,4.601,0.3,7,0.3
	c1.101,0,2.3,0.2,3.3,0c0.801-0.1,2.4,0.1,3.7,0.2s2.8,0.1,3.8,0.4c0.101,0,0.2,0,0.301,0c0.1,0,0.8,0.2,1.1,0.3c0,0,0,0.1,0.1,0.1
	c0.101,0,0.4,0.2,0.7,0.3c0.2,0.1,0.4,0,0.601,0c0,0,0,0.1,0.1,0.1c0.2,0,0.5,0.5,0.7,0.9c0.1,0.2,0.2,0.5,0.3,0.7
	c0.1,0.1,0.1,0.4,0.2,0.7c0,0.1-0.101,0.4,0,0.5h0.1c0.101,0.8,0,1.9,0,2.8c0,0.1,0,0.2,0,0.3c0.101,0.5,0,1.8-0.1,2.6
	c0,0.4,0.1,0.8,0,1.2c0,0.3-0.101,0.5-0.2,1c-0.2,1.6-0.3,3.2-0.5,4.7c0,0.2,0,0.5-0.1,0.7c0,0.2-0.101,0.2-0.2,0.5l0.1,0.1
	c0,0.2,0,0.6-0.1,0.9c0,0-0.101,0-0.101,0.1c0,0.3-0.1,0.5-0.199,0.9c0,0.1-0.101,0.1-0.101,0.1c-0.1,0.2-0.1,0.5-0.2,0.7
	c0,0.1-0.199,0.2-0.199,0.2c-0.101,0.3,0,0.4-0.2,0.7c0,0-0.101,0-0.101,0.1s-0.3,0.6-0.399,0.8C68.1,37,68.1,37.1,68,37.3
	c-0.2,0.4-0.4,0.8-0.6,1.1c-0.2,0.5-0.301,1-0.5,1.6c-0.101,0.2-0.301,0.7-0.4,0.9c0,0.1-0.1,0-0.1,0.1c0,0.2-0.2,0.2-0.301,0.3
	c0,0.2-0.199,0.2-0.3,0.3l-0.1,0.2c-0.101,0.1-0.3,0.2-0.4,0.3v0.2c-0.2,0.1-0.5,0.4-0.8,0.8c-0.2,0.3-0.3,0.5-0.5,0.8
	c-0.1,0.1-0.1,0-0.1,0.1c0,0.2-0.301,0.2-0.5,0.4c-0.101,0.1-0.2,0.3-0.301,0.4C62.9,45,62.7,45.1,62.5,45.3
	c-0.2,0.3-0.5,0.5-0.9,0.7c-0.199,0.1-0.3,0.3-0.5,0.4c-0.199,0.1-0.399,0.2-0.6,0.3c-0.2,0.1-0.3,0.3-0.5,0.4s-0.4,0.2-0.6,0.3
	c-0.101,0-0.2,0.2-0.2,0.2c-0.2,0.1-0.4,0.2-0.601,0.3c-0.1,0-0.199,0.2-0.199,0.2c-0.2,0.1-0.5,0.1-0.7,0.2
	c-0.101,0-0.2,0.2-0.2,0.2c-0.1,0.1-0.2,0-0.4,0.1c-0.1,0-0.199,0.2-0.199,0.2c-0.101,0-0.2,0-0.2,0c-0.101,0-0.101,0.1-0.101,0.1
	c-0.5,0.2-0.899,0.2-1.399,0.4C54.2,50,53.2,50,52.3,50.5z M61.9,20.6L61.8,20.5c-0.7-0.1-1.6,0-2,0c-0.399,0-0.6-0.1-0.7,0.1
	C59,20.7,59,20.5,59,20.5c-1.4-0.3-2.6-0.1-3.6,0c-0.601,0-1.301,0-1.9,0c-1-0.1-1.7-0.3-2.5-0.3c-0.9,0-1.7,0-2.6,0
	c-0.1,0-0.2,0.1-0.4,0.1c-0.4,0.1-0.8,0.1-1.2,0.1c-0.8,0-1.6,0-2.4-0.1c-1.8-0.1-3.5-0.3-5.1-0.4c-0.8-0.1-1.6-0.2-2.4-0.1
	c-0.2,0.3,0,0.5-0.1,0.8c-0.1,1.3-0.1,2.9-0.1,3.8c0,0.2,0,0.4,0,0.6c0,1.1,0.1,2.1,0.2,3c0,0.2,0.2,0.4,0.2,0.5
	c0.1,0.1,0,0.4,0,0.5c0.2,1.1,0.4,2.6,0.7,3.4c0.1,0.3,0.1,0.5,0.2,0.7c0,0.1,0.1,0.2,0.1,0.2c0,0.2,0.3,0.7,0.3,0.7
	c0.1,0.2,0.2,0.4,0.2,0.5s0.1,0.1,0.1,0.1c0.1,0.2,0,0.3,0.1,0.5c0,0.1,0.2,0.1,0.2,0.2c0.1,0.1,0,0.2,0.1,0.4
	c0.1,0.2,0.4,0.3,0.4,0.4v0.2c0.1,0.1,0.2,0.1,0.2,0.2c0.1,0.3,0.2,0.4,0.3,0.6c0.2,0.4,0.4,0.6,0.6,0.9c0.2,0.2,0.3,0.4,0.4,0.6
	c0.3,0.5,0.5,0.9,0.8,1.2l0.2,0.1c0.2,0,0.2,0.3,0.3,0.4h0.2l0.1,0.2h0.2c0.1,0.1,0.2,0.3,0.3,0.4c0.2,0.2,0.4,0.5,0.5,0.5
	c0.2,0,0.4,0.4,0.6,0.4c0.2,0,0.3,0.2,0.4,0.3c0.1,0,0.1,0.1,0.1,0.1c0.2,0.1,0.5,0.2,0.7,0.3c0.2,0.1,0.3,0.1,0.5,0.2
	c0.9,0.3,2.1,0.8,3,0.8c0.7,0,1.3-0.2,2-0.3c0.3-0.1,0.699-0.1,1.1-0.2c0.1,0,0.1-0.1,0.1-0.1c0.2-0.1,0.601-0.1,0.801-0.2l0.1-0.1
	c0.3-0.2,0.5-0.2,0.8-0.3c0.101,0,0.101-0.2,0.2-0.2s0.1-0.1,0.1-0.1c0.301-0.1,0.4-0.2,0.601-0.3c0.2-0.1,0.6-0.5,0.7-0.5
	c0.1,0,0.1-0.1,0.1-0.1c0.6-0.3,1.3-1,1.7-1.4v-0.2c0.2-0.2,0.5-0.2,0.5-0.4c0-0.2,0.3-0.3,0.399-0.3c0.101,0,0.101-0.3,0.101-0.3
	c0.1-0.1,0.2-0.2,0.3-0.3c0.2-0.3,0.8-1,0.8-1.2s0.4-0.6,0.4-0.7c0.2-0.2,0.2-0.3,0.3-0.6c0-0.1,0.1-0.1,0.1-0.1
	c0.2-0.3,0.301-0.9,0.4-1c0.2-0.3,0.3-0.8,0.4-0.9c0.1-0.1,0.3-0.3,0.3-0.4c0-0.2,0.3-0.5,0.399-0.6v-0.3c0-0.1,0.101-0.1,0.101-0.1
	c0.1-0.4,0.1-1.2,0.3-1.4c0.1,0,0-0.5,0-0.6c0.3-2.3,0.5-4.5,0.6-6.7c0-0.9,0.101-1.9-0.1-2.7C62.8,20.6,62.3,20.7,61.9,20.6z"/>
</svg>
