<?xml version="1.0" encoding="utf-8"?>
<!-- Generator: Adobe Illustrator 16.0.0, SVG Export Plug-In . SVG Version: 6.00 Build 0)  -->
<!DOCTYPE svg PUBLIC "-//W3C//DTD SVG 1.1//EN" "http://www.w3.org/Graphics/SVG/1.1/DTD/svg11.dtd">
<svg version="1.1" id="Layer_1" xmlns="http://www.w3.org/2000/svg" xmlns:xlink="http://www.w3.org/1999/xlink" x="0px" y="0px"
	 width="198.43px" height="198.43px" viewBox="0 0 198.43 198.43" enable-background="new 0 0 198.43 198.43" xml:space="preserve">
<g>
	<defs>
		<rect id="SVGID_1_" x="-176.277" y="-238" width="1383.553" height="983.86"/>
	</defs>
	<clipPath id="SVGID_2_">
		<use xlink:href="#SVGID_1_"  overflow="visible"/>
	</clipPath>
	<g clip-path="url(#SVGID_2_)">
		<defs>
			<path id="SVGID_3_" d="M113.649,155.178l62.243-0.301c0,0,16.054-4.241,16.054-29.079S175.291,95.8,175.291,95.8l-15.86,0.149
				c0,0,12.904-40.345-10.386-50.645L85.179,45.22c0,0-14.268,6.674-15.173,14.191h-25.03c0,0-7.734,2.096-7.734,14.955
				c0,12.858,7.661,14.89,7.661,14.89l25.217,0.255c0,0,5.011,11.329,14.863,15.042h15.929c0,0-3.014,2.939-3.014,6.914H72.541
				c0,0-7.256,1.124-7.256,13.417c0,12.294,6.752,15.827,6.752,15.827s-10.679-4.286-12.673-11.336v-12.919
				c0,0,4.226-12.31,14.302-12.31c0,0-8.125-6.07-8.055-8.054H54.725c0,0-10.448,7.161-11.345,12.75H16.44
				c0,0-15.842,16.234-0.111,31.135h26.023c0,0,5.4,11.236,14.33,15.033h44.726c0,0-7.877-6.328-10.9-15.409h7.537"/>
		</defs>
		<clipPath id="SVGID_4_">
			<use xlink:href="#SVGID_3_"  overflow="visible"/>
		</clipPath>
		
			<rect x="4.562" y="40.416" clip-path="url(#SVGID_4_)" fill-rule="evenodd" clip-rule="evenodd" fill="none" stroke="#076EB2" stroke-miterlimit="10" width="192.188" height="119.565"/>
	</g>
</g>
<g>
	<defs>
		<rect id="SVGID_5_" x="-176.277" y="-238" width="1383.553" height="983.86"/>
	</defs>
	<clipPath id="SVGID_6_">
		<use xlink:href="#SVGID_5_"  overflow="visible"/>
	</clipPath>
	<path clip-path="url(#SVGID_6_)" fill="none" stroke="#FFFFFF" stroke-miterlimit="10" d="M113.649,155.178l62.243-0.301
		c0,0,16.054-4.241,16.054-29.079S175.291,95.8,175.291,95.8l-15.86,0.149c0,0,12.904-40.345-10.386-50.645L85.179,45.22
		c0,0-14.268,6.674-15.173,14.191h-25.03c0,0-7.734,2.096-7.734,14.955c0,12.858,7.661,14.89,7.661,14.89l25.217,0.255
		c0,0,5.011,11.329,14.863,15.042h15.929c0,0-3.014,2.939-3.014,6.914H72.541c0,0-7.256,1.124-7.256,13.417
		c0,12.294,6.752,15.827,6.752,15.827s-10.679-4.286-12.673-11.336v-12.919c0,0,4.226-12.31,14.302-12.31
		c0,0-8.125-6.07-8.055-8.054H54.725c0,0-10.448,7.161-11.345,12.75H16.44c0,0-15.842,16.234-0.111,31.135h26.023
		c0,0,5.4,11.236,14.33,15.033h44.726c0,0-7.877-6.328-10.9-15.409h7.537"/>
	<path clip-path="url(#SVGID_6_)" fill="#FFFFFF" stroke="#FFFFFF" stroke-miterlimit="10" d="M98.161,139.9
		c0,0,10.174,14.479,15.488,15.277"/>
</g>
<g>
	<defs>
		<rect id="SVGID_7_" x="-176.277" y="-238" width="1383.553" height="983.86"/>
	</defs>
	<clipPath id="SVGID_8_">
		<use xlink:href="#SVGID_7_"  overflow="visible"/>
	</clipPath>
	<g clip-path="url(#SVGID_8_)">
		<defs>
			<path id="SVGID_9_" d="M105.957,111.712c0,0,7.087,0.22,9.497,6.521l1.062,9.175c0,0,7.124-3.543,9.133-15.852h15.399
				c0,0,3.694,5.526,3.694,11.494h25.471c0,0-0.254-10.303-3.648-12.226H181.8c0,0-2.762-8.558-8.389-8.558h-56.558L105.957,111.712
				z"/>
		</defs>
		<clipPath id="SVGID_10_">
			<use xlink:href="#SVGID_9_"  overflow="visible"/>
		</clipPath>
		
			<rect x="101.152" y="97.463" clip-path="url(#SVGID_10_)" fill-rule="evenodd" clip-rule="evenodd" fill="#FFFFFF" width="85.451" height="34.749"/>
	</g>
</g>
<g>
	<defs>
		<rect id="SVGID_11_" x="-176.277" y="-238" width="1383.553" height="983.86"/>
	</defs>
	<clipPath id="SVGID_12_">
		<use xlink:href="#SVGID_11_"  overflow="visible"/>
	</clipPath>
	<g clip-path="url(#SVGID_12_)">
		<defs>
			<path id="SVGID_13_" d="M78.288,61.567c0,0,10.034-0.221,10.034,14.785c0,0,8.52-4.27,9.807-16.158h15.488
				c0,0,2.456,3.399,2.456,10.738h26.521c0,0,0.78-8.451-3.45-10.931h14.11c0,0-4.102-8.418-8.55-8.604H90.289
				c0,0-7.158,0.368-9.579,4.486C78.288,60.001,78.288,61.567,78.288,61.567z"/>
		</defs>
		<clipPath id="SVGID_14_">
			<use xlink:href="#SVGID_13_"  overflow="visible"/>
		</clipPath>
		
			<rect x="73.484" y="46.593" clip-path="url(#SVGID_14_)" fill-rule="evenodd" clip-rule="evenodd" fill="#FFFFFF" width="84.575" height="34.564"/>
	</g>
</g>
</svg>
