<?xml version="1.0" encoding="utf-8"?>
<!-- Generator: Adobe Illustrator 16.0.0, SVG Export Plug-In . SVG Version: 6.00 Build 0)  -->
<!DOCTYPE svg PUBLIC "-//W3C//DTD SVG 1.1//EN" "http://www.w3.org/Graphics/SVG/1.1/DTD/svg11.dtd">
<svg version="1.1" id="Calque_1" xmlns="http://www.w3.org/2000/svg" xmlns:xlink="http://www.w3.org/1999/xlink" x="0px" y="0px"
	 width="270.021px" height="74.623px" viewBox="0 0 270.021 74.623" enable-background="new 0 0 270.021 74.623"
	 xml:space="preserve">
<circle fill="#800000" cx="37.311" cy="37.312" r="37.311"/>
<path fill="#FFFFFF" d="M23.953,14.601c0-0.475,0.339-0.881,0.88-0.881c0.407,0,0.813,0.406,0.813,0.881v18.897
	c0,6.502,5.215,11.718,11.582,11.718c6.435,0,11.649-5.216,11.649-11.718V14.601c0-0.475,0.474-0.881,0.881-0.881
	c0.474,0,0.88,0.406,0.88,0.881v18.897c0,7.45-6.028,13.409-13.411,13.409c-7.314,0-13.275-5.959-13.275-13.409V14.601z"/>
<g>
	<path fill="#FFFFFF" d="M36.449,45.795c0-0.197,0.338-0.367,0.88-0.367c0.474,0,0.812,0.17,0.812,0.367v19.067
		c0,0.198-0.339,0.368-0.812,0.368c-0.542,0-0.88-0.17-0.88-0.368V45.795z"/>
</g>
<g>
	<path fill="#FFFFFF" stroke="#FFFFFF" stroke-miterlimit="10" d="M47.307,32.587c0,0-5.286,0.011-8.266-1.789
		c-6.818-3.983-11.513-1.782-11.627-1.685c-0.569,6.371,0.332,14.04,10.167,14.366C46.186,43.392,47.38,34.984,47.307,32.587z"/>
</g>
<text transform="matrix(1 0 0 1 86.6929 58.2529)" fill="#2B2629" font-family="'QuicksandLight-Regular'" font-size="67.725">vinify</text>
</svg>
