<?xml version="1.0" encoding="UTF-8" standalone="no"?>
<svg width="78px" height="78px" viewBox="0 0 78 78" version="1.1" xmlns="http://www.w3.org/2000/svg" xmlns:xlink="http://www.w3.org/1999/xlink" xmlns:sketch="http://www.bohemiancoding.com/sketch/ns">
    <!-- Generator: Sketch 3.0.4 (8054) - http://www.bohemiancoding.com/sketch -->
    <title>logo_grapes</title>
    <desc>Created with Sketch.</desc>
    <defs></defs>
    <g id="Page-4" stroke="none" stroke-width="1" fill="none" fill-rule="evenodd" sketch:type="MSPage">
        <g id="logo_grapes" sketch:type="MSLayerGroup" transform="translate(1.000000, 1.000000)">
            <circle id="Oval-98" stroke="#CB0001" stroke-width="2" sketch:type="MSShapeGroup" cx="38" cy="38" r="38"></circle>
            <g id="Grapes-2" transform="translate(18.000000, 15.000000)" fill="#CB0001" sketch:type="MSShapeGroup">
                <path d="M-0.0485880829,-0.233432795 C-0.0485880829,-0.233432795 15.5600059,16.5703123 39.0690903,16.8712522 C39.0690903,16.8712522 31.1447602,13.949192 22.3083216,10.3616463 C13.3700873,6.7328044 3.49828867,2.42257567 -0.0485880829,-0.233432795 L-0.0485880829,-0.233432795 Z" id="Shape"></path>
                <path d="M25.4067728,2.42732236 C25.4067728,2.42732236 21.8367715,4.82487374 22.3083216,9.41230896 C22.7798716,13.9997442 25.2098565,3.08117843 25.4067728,2.42732236 L25.4067728,2.42732236 Z" id="Shape"></path>
                <ellipse id="Oval" cx="23.2099406" cy="42.8574625" rx="4.42513283" ry="4.4053998"></ellipse>
                <ellipse id="Oval" cx="8.84888026" cy="21.677747" rx="5.0831097" ry="5.06044254"></ellipse>
                <ellipse id="Oval" cx="33.1463449" cy="22.8454319" rx="5.77923015" ry="5.75345878"></ellipse>
                <ellipse id="Oval" cx="27.0347887" cy="32.8998634" rx="3.24363524" ry="3.22917087"></ellipse>
                <path d="M12.5797998,32.1380202 C12.5797998,29.7373835 14.533705,27.7924287 16.9439029,27.7924287 C19.3538624,27.7924287 21.308006,29.7371461 21.308006,32.1380202 C21.308006,34.5369956 19.3538624,36.4821877 16.9439029,36.4821877 C14.533705,36.4819504 12.5797998,34.5369956 12.5797998,32.1380202 L12.5797998,32.1380202 Z" id="Shape"></path>
                <path d="M16.3364663,21.5821013 C16.3364663,19.0300453 18.4140998,16.9621513 20.9766336,16.9621513 C23.5398826,16.9621513 25.6177545,19.0300453 25.6177545,21.5821013 C25.6177545,24.1341573 23.5403594,26.201814 20.9766336,26.201814 C18.4143382,26.201814 16.3364663,24.1336827 16.3364663,21.5821013 L16.3364663,21.5821013 Z" id="Shape"></path>
            </g>
        </g>
    </g>
</svg>