<?xml version="1.0" encoding="utf-8"?>
<!-- Generator: Adobe Illustrator 16.0.0, SVG Export Plug-In . SVG Version: 6.00 Build 0)  -->
<!DOCTYPE svg PUBLIC "-//W3C//DTD SVG 1.1//EN" "http://www.w3.org/Graphics/SVG/1.1/DTD/svg11.dtd">
<svg version="1.1" id="Layer_1" xmlns="http://www.w3.org/2000/svg" xmlns:xlink="http://www.w3.org/1999/xlink" x="0px" y="0px"
	 width="64px" height="64px" viewBox="0 0 64 64" enable-background="new 0 0 64 64" xml:space="preserve">
<g>
	<g id="UcLiwa_6_">
		<g>
			<path fill="#FFFFFF" d="M43.878,51.123c-2.069,0,7.742,0,6.22,0c-0.116-0.208-0.095-0.402,0.059-0.581
				c0.29-0.324,0.648-0.577,1.053-0.698c2.691-0.798,3.292-2.653,3.177-5.291c-0.2-4.607-0.247-9.238-0.001-13.838
				c0.241-4.538-0.885-8.645-2.887-12.609c-0.412-0.813-0.768-1.65-1.039-2.522c-0.834-4.245-0.805-8.557-0.991-12.847
				c-0.324-0.533-0.503-1.144-0.873-1.651c-0.874-0.604-1.806-0.351-2.732-0.18c-0.367,0.111-0.727,0.235-0.958,0.575
				c-0.243,1.224-0.483,2.443-0.306,3.699c0.103,0.552,0.097,1.102-0.021,1.65c-0.393,1.174-0.11,2.406-0.295,3.596
				c-0.023,0.182-0.064,0.36-0.116,0.536c-0.222,0.596-0.188,1.236-0.303,1.851c-0.466,1.92-1.022,3.809-1.798,5.629
				c-0.346,0.61-0.632,1.246-0.795,1.935c-0.046,0.18-0.107,0.352-0.176,0.523c-1.164,2.959-1.813,6.03-2.023,9.199
				c-0.261,2.16-0.339,4.317,0.077,6.469c0.283,3.374,0.489,6.752,0.626,10.131c0.306,1.854,1.176,3.14,3.235,3.278
				c0.422,0.029,0.83,0.181,1.019,0.637C44.066,50.808,44.015,50.978,43.878,51.123z"/>
			<path fill-rule="evenodd" clip-rule="evenodd" fill="#B0B0B0" d="M48.269,51.123c-0.854,0-1.706,0-2.56,0
				c-0.12-0.204-0.088-0.38,0.095-0.529c0.788-0.399,1.579-0.399,2.368-0.003C48.357,50.74,48.388,50.919,48.269,51.123z"/>
			<path fill-rule="evenodd" clip-rule="evenodd" fill="#DFDFDF" d="M45.695,50.797c0.01,0.108,0.014,0.218,0.014,0.326
				c-0.61,0-1.222,0-1.831,0c0.006-0.138,0.011-0.274,0.018-0.413C44.521,50.24,45.122,50.235,45.695,50.797z"/>
			<path fill-rule="evenodd" clip-rule="evenodd" fill="#BFBEBE" d="M48.269,51.123c0.003-0.103,0.005-0.206,0.005-0.309
				c0.605-0.591,1.219-0.579,1.838-0.021c0.004,0.111,0,0.222-0.014,0.33C49.488,51.123,48.879,51.123,48.269,51.123z"/>
			<path fill-rule="evenodd" clip-rule="evenodd" fill="#090908" d="M50.111,50.793c-0.613,0.008-1.225,0.015-1.838,0.021
				c-0.86-0.007-1.719-0.012-2.578-0.018c-0.6-0.028-1.2-0.057-1.8-0.087c-2.046-0.445-4.346-0.566-4.444-3.491
				c-0.275-2.212-0.114-4.413-0.1-6.828c0.966,1.011,0.953,1.011,1.01,2.123c0.04,0.78-0.132,1.582,0.213,2.328
				c0.238,0.475,0.651,0.675,1.155,0.733c2.755,0.722,5.535,0.926,8.349,0.431c0.592-0.141,1.195-0.214,1.782-0.379
				c0.862-0.246,1.351-0.774,1.361-1.698c0.038-3.341,0.038-6.682,0.003-10.023c-0.021-1.938-1.396-0.886-2.252-0.964
				c-0.498,0.013-0.992-0.005-1.442-0.257c-0.598-1.143,0.826-1.009,1.036-1.645c2.146-0.692,2.799-1.935,2.458-4.326
				c-0.534-3.726-2.115-7.047-3.26-10.536c-0.356-1.091-0.932-2.113-0.867-3.311c-0.15-0.882,0.43-1.881-0.43-2.644
				c-0.156-0.01-0.308-0.023-0.464-0.021c-0.664,0.001-1.334,0.081-1.982-0.126c-0.162-0.071-0.289-0.183-0.391-0.327
				c-0.006-0.292,0.161-0.463,0.404-0.583c0.375-0.15,0.78-0.142,1.167-0.234c0.367-0.092,0.637-0.368,0.97-0.525
				c0.194-0.105,0.387-0.215,0.548-0.371c0.073-0.838,0.837-1.85-0.607-2.271c-0.251,0.042-0.5,0.073-0.754,0.091
				c-1.477-0.192-2.096,0.421-1.923,1.924c0.121,1.026-0.305,2.008-0.408,3.022c-0.029,0.176-0.075,0.346-0.126,0.516
				c-0.254,0.667-0.184,1.394-0.36,2.076c-0.086,0.351-0.173,0.702-0.25,1.056c-0.445,1.942-1.188,3.784-1.915,5.628
				c-0.235,0.6-0.403,1.289-1.159,1.507c-0.645-0.278-0.461-0.758-0.299-1.233l-0.012,0.026c0.427-0.55,0.483-1.25,0.759-1.862
				c0.614-1.934,1.229-3.868,1.848-5.801c0.436-0.565-0.027-1.292,0.335-1.87l-0.01,0.027c0.574-1.349-0.061-2.806,0.369-4.168
				c0.003-0.533,0.005-1.068,0.005-1.602c0.319-1.348,0.057-2.752,0.396-4.098c0.167-0.591,0.652-0.341,1.025-0.387
				c1.094-0.218,2.185-0.275,3.275,0.028c0.659,0.298,0.333,1.131,0.824,1.52c0.457,2.945-0.062,5.929,0.358,8.878
				c0.219,1.535,0.203,3.107,0.803,4.573c1.572,3.668,3.854,7.103,3.971,11.263c0.088,3.164-0.012,6.333,0.004,9.5
				c0.015,2.984-0.086,5.981,0.154,8.947c0.2,2.436-0.779,3.875-2.9,4.742C51.462,50.335,50.782,50.554,50.111,50.793z"/>
			<path fill-rule="evenodd" clip-rule="evenodd" fill="#0F0B0A" d="M50.828,31.364c-0.184,0.771-1.093,0.575-1.461,1.099
				c-0.078,0.333-0.291,0.55-0.602,0.678c-1.121,0.29-2.251,0.211-3.381,0.058c-1.421-0.436-2.888-0.141-4.326-0.256
				c-0.171,0.003-0.345-0.002-0.513,0c-1.209,0.718-0.278,2-0.766,2.902c-0.188,1.164-0.379,2.328-0.486,3.116
				c-0.043,0.628,0.374,0.291,0.14,0.359c-0.071,0.021-0.099-0.028-0.102-0.152c-0.005-0.353-0.101-0.731,0.306-0.956
				c0.219,0.02,0.378,0.123,0.491,0.311c0.837,2.34,0.95,4.697,0.202,7.081c-1.096-1.43-0.054-3.135-0.88-4.64
				c0,2.086,0,4.17,0,6.256c-0.251-3.547-0.5-7.096-0.749-10.644c-0.194-2.248-0.206-4.497,0.007-6.744
				c0.035-3.324,0.719-6.496,2.209-9.48c0.057,0.408-0.038,0.869,0.401,1.143c0.526,0.767,0.105,1.524-0.062,2.261
				c-0.413,1.828-0.839,3.652-0.893,5.534c-0.027,0.983,0.172,1.836,1.397,1.929c0.593,0.003,1.179,0.049,1.759,0.166
				c1.563,0.346,3.128,0.333,4.691,0.004C49.082,31.304,49.951,30.728,50.828,31.364z"/>
			<path fill-rule="evenodd" clip-rule="evenodd" fill="#0F0B0A" d="M50.894,15.615c-0.975-1.646-1.069-3.506-1.137-5.327
				c-0.1-2.705-0.024-5.416-0.024-8.125c0.629,0.666,0.305,1.484,0.324,2.23C50.155,8.148,50.292,11.899,50.894,15.615z"/>
			<path fill-rule="evenodd" clip-rule="evenodd" fill="#4D4B48" d="M38.709,29.831c0.167,2.248,0.216,4.497-0.007,6.744
				C38.449,34.327,38.308,32.079,38.709,29.831z"/>
			<path fill-rule="evenodd" clip-rule="evenodd" fill="#0F0B0A" d="M44.607,1.002C44.493,2.37,44.926,3.79,44.212,5.1
				C44.005,3.702,43.975,2.319,44.607,1.002z"/>
			<path fill-rule="evenodd" clip-rule="evenodd" fill="#0F0B0A" d="M44.207,6.702c-0.116,1.391,0.456,2.841-0.369,4.168
				C43.932,9.479,43.823,8.068,44.207,6.702z"/>
			<path fill-rule="evenodd" clip-rule="evenodd" fill="#0F0B0A" d="M48.908,0.644c-1.093-0.01-2.185-0.019-3.275-0.028
				C46.729,0.196,47.821-0.077,48.908,0.644z"/>
			<path fill-rule="evenodd" clip-rule="evenodd" fill="#0F0B0A" d="M41.665,18.515c0.041,0.741-0.086,1.413-0.759,1.862
				C40.907,19.655,41.257,19.073,41.665,18.515z"/>
			<path fill-rule="evenodd" clip-rule="evenodd" fill="#0F0B0A" d="M43.848,10.843c-0.044,0.636,0.278,1.337-0.335,1.87
				C43.437,12.057,43.437,11.413,43.848,10.843z"/>
			<path fill-rule="evenodd" clip-rule="evenodd" fill="#F1DEC6" d="M50.931,32.508c2.781-0.718,2.779-0.718,2.801,2.181
				c0.022,2.906-0.161,5.834,0.146,8.708c0.227,2.12-0.806,2.627-2.434,2.897c-0.415,0.07-0.842,0.078-1.263,0.115
				c-1.686,0.293-3.385,0.064-5.076,0.133c-1.396,0.057-1.504-1.051-1.645-1.974c-0.34-2.229-0.156-4.483-0.147-6.725
				c0.008-1.503-0.271-3.039,0.328-4.502c0.429-0.592,1.02-0.441,1.623-0.397c1.484,0.109,2.977,0.213,4.448-0.134
				C50.107,32.668,50.546,32.697,50.931,32.508z"/>
			<path fill-rule="evenodd" clip-rule="evenodd" fill="#39312B" d="M50.828,31.364c-0.854,0.125-1.706,0.25-2.56,0.375
				c-1.439,0.342-2.893,0.155-4.343,0.105c-0.562-0.582-0.61-1.317-0.551-2.052c0.534-6.551,2.077-12.957,2.835-19.477
				c0.557-0.699,1.456-0.043,2.069-0.522c0.117,0.001,0.235,0,0.356-0.005c0.8,0.008,0.47,0.631,0.534,1.019
				c0.105,0.633-0.177,1.305,0.192,1.913c-0.062,0.856,0.198,1.611,0.513,2.414c1.103,2.823,2.053,5.705,3.114,8.543
				c0.671,1.794,0.218,3.717,0.737,5.528c0.202,0.699-0.299,1.109-0.926,1.344C52.134,30.798,51.382,30.84,50.828,31.364z"/>
			<path fill-rule="evenodd" clip-rule="evenodd" fill="#322B26" d="M46.44,10.156c0.097,4.03-0.899,7.914-1.529,11.853
				c-0.518,3.215-1.073,6.441-1.029,9.723c-0.122,0.144-0.244,0.147-0.372,0.008c-0.607-0.002-1.215-0.005-1.825-0.008
				c-0.732-0.899-0.563-1.969-0.474-2.978c0.362-4.002,1.057-7.946,2.322-11.771c0.303-0.919,0.598-1.823,0.358-2.804
				c0-0.302,0.061-0.573,0.353-0.734c0.476-0.671-0.09-1.518,0.367-2.193v0.001c0.571-0.333-0.45-1.857,1.095-1.463V9.788
				C45.892,10.029,46.263,9.899,46.44,10.156z"/>
			<path fill-rule="evenodd" clip-rule="evenodd" fill="#D4C2AD" d="M43.929,33.288c-0.014,3.454-0.075,6.909-0.033,10.363
				c0.03,2.57,0.238,2.707,2.834,2.711c1.15,0.003,2.301,0.03,3.452,0.048c-2.993,0.657-5.939,0.39-8.856-0.445
				c-0.351-0.372-0.529-0.824-0.527-1.323c0.012-3.154-0.221-6.314,0.03-9.463C41.005,32.948,41.965,32.431,43.929,33.288z"/>
			<path fill-rule="evenodd" clip-rule="evenodd" fill="#292320" d="M43.892,14.178c0.629,0.903,0.347,1.824,0.095,2.768
				c-1.289,4.847-2.418,9.72-2.302,14.785c-1.372,0.047-1.882-0.588-1.856-1.979c0.053-2.845,0.83-5.537,1.491-8.259
				C42.255,19.083,43.3,16.71,43.892,14.178z"/>
			<path fill-rule="evenodd" clip-rule="evenodd" fill="#BAAA97" d="M43.929,33.288c-2.345-0.148-2.581,0.051-2.598,2.472
				c-0.024,3.402-0.006,6.803-0.006,10.205c-0.429,0.146-0.713-0.105-0.994-0.362c0.068-2.438-0.098-4.862-0.515-7.267
				c-0.622-1.95-0.07-3.892,0.059-5.836c0.003-0.02,0.219-0.02,0.341-0.022c0.069,0.069,0.147,0.082,0.234,0.04
				c1.612,0.406,3.284-0.153,4.891,0.312c1.222,0.154,2.441,0.214,3.66-0.005c0.377-0.227,0.748-0.263,1.108,0.04
				C48.099,33.727,45.981,33.012,43.929,33.288z"/>
			<path fill-rule="evenodd" clip-rule="evenodd" fill="#362F2A" d="M44.611,47.833c3.001-0.084,6.055,0.428,8.988-1.004
				c-0.322,1.793-1.658,2.739-3.887,2.821c-1.577,0.055-3.156,0.007-4.736,0.006C44.536,49.113,44.12,48.562,44.611,47.833z"/>
			<path fill-rule="evenodd" clip-rule="evenodd" fill="#0F331B" d="M48.993,8.688c-0.24-0.001-0.479-0.003-0.719-0.004
				c-0.46-0.179-0.95-0.208-1.435-0.216c-1.159-0.019-1.736-0.42-1.716-1.751c0.021-1.465,0.958-1.079,1.737-1.127
				c0.243-0.015,0.48-0.028,0.682-0.189c0.242-0.001,0.484-0.004,0.726-0.007c0.675-0.336,0.913,0.043,0.892,0.621
				C49.128,6.906,49.378,7.819,48.993,8.688z"/>
			<path fill-rule="evenodd" clip-rule="evenodd" fill="#0E110E" d="M47.543,5.4c-0.297,0.4-0.737,0.377-1.154,0.36
				c-0.785-0.031-1.058,0.347-1.056,1.1c0.003,0.755,0.283,1.117,1.063,1.097c0.716-0.02,1.486-0.119,1.878,0.727
				c-0.246,0.246-0.491,0.492-0.738,0.737c-0.486-0.268-0.974-0.807-1.461-0.001c-0.123,0.123-0.246,0.246-0.369,0.369
				c-1.035-0.014-0.481,1.162-1.095,1.463c-0.023-1.62,0.395-3.194,0.422-4.825C45.061,4.576,46.683,5.726,47.543,5.4z"/>
			<path fill-rule="evenodd" clip-rule="evenodd" fill="#312A26" d="M44.611,47.833c0.122,0.607,0.244,1.216,0.365,1.823
				c-0.867-0.016-1.762,0.141-2.562-0.36c-0.592-0.374-1.099-0.821-0.858-1.607c0.134-0.435,0.49-0.468,0.861-0.224
				C43.148,47.588,43.88,47.709,44.611,47.833z"/>
			<path fill-rule="evenodd" clip-rule="evenodd" fill="#791415" d="M48.938,4.289c-0.349,0.135-0.697,0.269-1.048,0.404
				c-0.889,0.042-2.266,0.749-2.384-0.648C45.357,2.267,47,3.21,47.854,3.056C48.685,2.907,49.593,2.989,48.938,4.289z"/>
			<path fill-rule="evenodd" clip-rule="evenodd" fill="#0F0B0A" d="M48.938,4.289c0.129-0.744-0.098-1.211-0.937-1.082
				c-0.732,0.115-1.624-0.346-2.169,0.427c-0.268,0.375-0.108,0.86,0.439,0.95c0.529,0.088,1.078,0.076,1.618,0.108
				c-0.613,0.585-1.363,0.339-2.053,0.277C45.187,4.912,45,4.397,44.984,3.793c-0.017-0.697,0.336-0.961,0.994-0.956
				c0.719,0.007,1.447,0.046,2.16-0.036C49.721,2.62,49.644,3.269,48.938,4.289z"/>
			<path fill-rule="evenodd" clip-rule="evenodd" fill="#26211E" d="M42.417,47.465c-1.489,0.607,0.048,1.22-0.003,1.831
				c-0.297-0.042-0.646,0.004-0.881-0.139c-0.599-0.372-1.1-1.035-0.793-1.652C41.099,46.786,41.836,46.994,42.417,47.465z"/>
			<path fill-rule="evenodd" clip-rule="evenodd" fill="#771314" d="M45.691,1.746c0.52-0.584,1.218-0.322,1.838-0.354
				c0.35-0.018,0.951-0.221,0.938,0.438c-0.013,0.49-0.469,0.626-0.918,0.635C47.069,1.872,45.96,2.894,45.691,1.746z"/>
			<path fill-rule="evenodd" clip-rule="evenodd" fill="#0E110E" d="M48.993,8.688c-0.314-1.082,0.724-2.461-0.725-3.295
				c0.448-0.45,0.989-0.471,1.023,0.195C49.344,6.616,49.732,7.723,48.993,8.688z"/>
			<path fill-rule="evenodd" clip-rule="evenodd" fill="#0E110E" d="M49.362,12.719c-0.866-0.821,0.141-2.11-0.727-2.931
				c0.618-0.512,0.7-0.031,0.716,0.42C49.382,11.044,49.362,11.883,49.362,12.719z"/>
			<path fill-rule="evenodd" clip-rule="evenodd" fill="#25211C" d="M46.075,9.42c-0.04-0.259-0.607-0.583-0.288-0.644
				c0.609-0.117,1.522-0.492,1.749,0.645C47.05,9.421,46.562,9.42,46.075,9.42z"/>
			<path fill-rule="evenodd" clip-rule="evenodd" fill="#0F0B0A" d="M45.691,1.746c0.446,0.687,1.416,0.023,1.858,0.72
				c-0.534-0.005-1.074,0.029-1.604-0.024C45.481,2.395,45.324,2.145,45.691,1.746z"/>
			<path fill-rule="evenodd" clip-rule="evenodd" fill="#0E110E" d="M46.44,10.156c-0.3-0.013-0.575-0.074-0.734-0.369
				c0.858,0.002,1.715,0.003,2.573,0.005C47.761,10.393,47.058,10.061,46.44,10.156z"/>
			<path fill-rule="evenodd" clip-rule="evenodd" fill="#0F0B0A" d="M44.611,11.251c-0.118,0.732,0.292,1.552-0.367,2.193
				C44.363,12.713,43.944,11.891,44.611,11.251z"/>
			<path fill-rule="evenodd" clip-rule="evenodd" fill="#23211D" d="M50.109,32.864c-0.369-0.013-0.739-0.026-1.108-0.04
				c0.121-0.121,0.243-0.242,0.366-0.362c0.52,0.014,1.041,0.03,1.563,0.045C50.656,32.626,50.384,32.746,50.109,32.864z"/>
			<path fill-rule="evenodd" clip-rule="evenodd" fill="#4D4B48" d="M40.216,32.478c-0.872,1.15-0.247,2.448-0.359,3.673
				c-0.067,0.724-0.03,1.457-0.04,2.185c-0.105-0.016-0.209-0.032-0.312-0.052c-0.352-0.82-0.214-1.657-0.081-2.493
				c0.014-0.975,0.004-1.949,0.048-2.922C39.492,32.392,39.618,31.935,40.216,32.478z"/>
			<path fill-rule="evenodd" clip-rule="evenodd" fill="#23211D" d="M43.51,31.739c0.124-0.002,0.248-0.005,0.372-0.008
				c1.463,0.002,2.924,0.004,4.387,0.008C46.684,32.331,45.098,32.333,43.51,31.739z"/>
			<path fill-rule="evenodd" clip-rule="evenodd" fill="#23211D" d="M45.341,32.83c-1.639,0.047-3.284,0.182-4.891-0.312
				C42.084,32.58,43.75,32.104,45.341,32.83z"/>
			<path fill-rule="evenodd" clip-rule="evenodd" fill="#090908" d="M39.424,35.791c0.027,0.832,0.054,1.662,0.081,2.493
				c-0.116,0.492,0.199,1.06-0.361,1.615C39.257,38.443,38.787,37.092,39.424,35.791z"/>
			<path fill-rule="evenodd" clip-rule="evenodd" fill="#5C5551" d="M51.909,25.189c0.019,0.841-0.225,1.502-0.908,1.532
				c-0.577,0.026-0.866-0.593-0.892-1.196c-0.091-2.333-0.709-4.541-1.541-6.704c-0.162-0.42-0.569-0.963,0.103-1.248
				c0.578-0.245,0.819,0.299,1.102,0.706C51.245,20.412,51.336,22.955,51.909,25.189z"/>
		</g>
	</g>
	<g id="UcLiwa_1_">
		<g>
			<path fill="#FFFFFF" d="M29.248,63.803c-2.07,0,7.741,0,6.218,0c-0.114-0.208-0.095-0.4,0.061-0.581
				c0.291-0.324,0.648-0.579,1.052-0.697c2.691-0.798,3.292-2.653,3.178-5.292c-0.202-4.607-0.248-9.237-0.002-13.839
				c0.242-4.537-0.884-8.644-2.885-12.607c-0.413-0.814-0.77-1.651-1.041-2.523c-0.832-4.246-0.806-8.557-0.991-12.847
				c-0.324-0.533-0.503-1.145-0.872-1.651c-0.875-0.605-1.808-0.352-2.733-0.181c-0.367,0.111-0.727,0.235-0.959,0.575
				c-0.243,1.225-0.483,2.444-0.306,3.699c0.104,0.553,0.097,1.102-0.021,1.65c-0.392,1.175-0.11,2.406-0.294,3.597
				c-0.023,0.182-0.066,0.359-0.117,0.535c-0.221,0.596-0.189,1.234-0.302,1.851c-0.464,1.918-1.023,3.81-1.798,5.629
				c-0.346,0.611-0.632,1.246-0.796,1.934c-0.045,0.181-0.105,0.353-0.175,0.524c-1.163,2.958-1.812,6.029-2.022,9.197
				c-0.261,2.162-0.339,4.319,0.077,6.47c0.283,3.374,0.49,6.752,0.626,10.131c0.304,1.854,1.173,3.143,3.235,3.281
				c0.423,0.026,0.831,0.179,1.017,0.634C29.435,63.489,29.386,63.657,29.248,63.803z"/>
			<path fill-rule="evenodd" clip-rule="evenodd" fill="#B0B0B0" d="M33.639,63.803c-0.854,0-1.708,0-2.562,0
				c-0.119-0.203-0.087-0.381,0.097-0.529c0.789-0.399,1.579-0.399,2.37-0.002C33.726,63.42,33.757,63.6,33.639,63.803z"/>
			<path fill-rule="evenodd" clip-rule="evenodd" fill="#DFDFDF" d="M31.064,63.477c0.011,0.109,0.015,0.218,0.012,0.326
				c-0.609,0-1.219,0-1.829,0c0.005-0.135,0.011-0.276,0.016-0.413C29.889,62.92,30.49,62.915,31.064,63.477z"/>
			<path fill-rule="evenodd" clip-rule="evenodd" fill="#BFBEBE" d="M33.639,63.803c0.001-0.103,0.004-0.203,0.005-0.308
				c0.605-0.592,1.219-0.58,1.835-0.021c0.005,0.11,0,0.221-0.013,0.329C34.856,63.803,34.249,63.803,33.639,63.803z"/>
			<path fill-rule="evenodd" clip-rule="evenodd" fill="#090908" d="M35.479,63.474c-0.611,0.008-1.224,0.013-1.835,0.021
				c-0.86-0.005-1.719-0.011-2.579-0.019c-0.6-0.028-1.2-0.058-1.8-0.087c-2.046-0.443-4.345-0.567-4.443-3.49
				c-0.276-2.212-0.114-4.417-0.1-6.832c0.966,1.014,0.954,1.014,1.01,2.125c0.04,0.782-0.131,1.583,0.214,2.331
				c0.237,0.473,0.65,0.673,1.153,0.732c2.755,0.724,5.536,0.926,8.35,0.43c0.591-0.141,1.194-0.214,1.78-0.379
				c0.866-0.246,1.351-0.772,1.361-1.698c0.04-3.341,0.038-6.68,0.003-10.021c-0.02-1.939-1.394-0.886-2.25-0.966
				c-0.498,0.012-0.993-0.007-1.442-0.259c-0.598-1.142,0.826-1.009,1.035-1.643c2.146-0.693,2.797-1.936,2.457-4.326
				c-0.532-3.727-2.114-7.048-3.258-10.537c-0.357-1.091-0.933-2.113-0.866-3.31c-0.15-0.883,0.428-1.882-0.431-2.645
				c-0.158-0.01-0.309-0.021-0.464-0.021c-0.665,0.001-1.333,0.08-1.983-0.125c-0.162-0.072-0.29-0.183-0.39-0.327
				c-0.006-0.293,0.162-0.464,0.402-0.584c0.375-0.15,0.783-0.143,1.167-0.234c0.369-0.092,0.637-0.368,0.969-0.525
				c0.197-0.104,0.389-0.215,0.55-0.372c0.071-0.837,0.837-1.849-0.606-2.271c-0.251,0.042-0.502,0.074-0.754,0.091
				c-1.478-0.192-2.097,0.421-1.922,1.924c0.119,1.027-0.306,2.009-0.412,3.022c-0.029,0.175-0.075,0.346-0.124,0.515
				c-0.255,0.667-0.184,1.393-0.36,2.077c-0.086,0.351-0.174,0.701-0.25,1.055c-0.445,1.943-1.189,3.785-1.916,5.629
				c-0.236,0.6-0.403,1.29-1.158,1.508c-0.646-0.279-0.463-0.76-0.3-1.234l-0.012,0.026c0.427-0.55,0.485-1.25,0.757-1.862
				c0.617-1.935,1.233-3.869,1.848-5.802c0.438-0.564-0.025-1.292,0.337-1.87l-0.01,0.027c0.573-1.349-0.061-2.805,0.37-4.167
				c0.001-0.535,0.002-1.069,0.003-1.603c0.321-1.348,0.058-2.752,0.396-4.098c0.168-0.59,0.652-0.342,1.025-0.386
				c1.093-0.22,2.185-0.276,3.273,0.028c0.659,0.298,0.334,1.132,0.825,1.521c0.457,2.945-0.063,5.928,0.357,8.878
				c0.22,1.534,0.205,3.107,0.806,4.573c1.572,3.668,3.854,7.103,3.968,11.264c0.089,3.162-0.009,6.332,0.006,9.498
				c0.018,2.985-0.086,5.979,0.156,8.947c0.198,2.436-0.781,3.875-2.903,4.742C36.834,63.017,36.151,63.23,35.479,63.474z"/>
			<path fill-rule="evenodd" clip-rule="evenodd" fill="#0F0B0A" d="M36.195,44.045c-0.183,0.77-1.09,0.574-1.46,1.099
				c-0.079,0.333-0.289,0.55-0.601,0.678c-1.121,0.289-2.25,0.211-3.381,0.057c-1.421-0.437-2.888-0.141-4.326-0.257
				c-0.17,0.004-0.345-0.002-0.512,0c-1.21,0.719-0.278,2-0.765,2.903c-0.189,1.164-0.38,2.328-0.487,3.117
				c-0.044,0.626,0.373,0.289,0.14,0.357c-0.071,0.021-0.099-0.028-0.102-0.152c-0.005-0.353-0.101-0.729,0.306-0.956
				c0.219,0.019,0.378,0.122,0.49,0.311c0.836,2.342,0.951,4.697,0.202,7.081c-1.096-1.428-0.053-3.135-0.879-4.64
				c0,2.086,0,4.171,0,6.257c-0.249-3.55-0.499-7.094-0.749-10.642c-0.195-2.25-0.207-4.498,0.005-6.746
				c0.035-3.324,0.72-6.496,2.21-9.48c0.055,0.408-0.041,0.869,0.401,1.143c0.527,0.768,0.104,1.523-0.062,2.261
				c-0.415,1.828-0.839,3.65-0.893,5.534c-0.028,0.982,0.172,1.836,1.396,1.928c0.592,0.006,1.178,0.052,1.757,0.168
				c1.565,0.348,3.128,0.332,4.693,0.004C34.452,43.982,35.321,43.409,36.195,44.045z"/>
			<path fill-rule="evenodd" clip-rule="evenodd" fill="#0F0B0A" d="M36.264,28.295c-0.975-1.646-1.07-3.506-1.137-5.326
				c-0.101-2.706-0.026-5.417-0.026-8.125c0.629,0.665,0.305,1.484,0.323,2.229C35.522,20.829,35.662,24.58,36.264,28.295z"/>
			<path fill-rule="evenodd" clip-rule="evenodd" fill="#4D4B48" d="M24.078,42.512c0.167,2.248,0.216,4.496-0.005,6.746
				C23.818,47.008,23.676,44.76,24.078,42.512z"/>
			<path fill-rule="evenodd" clip-rule="evenodd" fill="#0F0B0A" d="M29.977,13.682c-0.116,1.368,0.318,2.789-0.396,4.098
				C29.375,16.381,29.344,15,29.977,13.682z"/>
			<path fill-rule="evenodd" clip-rule="evenodd" fill="#0F0B0A" d="M29.578,19.383c-0.118,1.39,0.455,2.841-0.37,4.167
				C29.301,22.159,29.192,20.748,29.578,19.383z"/>
			<path fill-rule="evenodd" clip-rule="evenodd" fill="#0F0B0A" d="M34.275,13.324c-1.09-0.009-2.182-0.019-3.273-0.028
				C32.097,12.875,33.192,12.604,34.275,13.324z"/>
			<path fill-rule="evenodd" clip-rule="evenodd" fill="#0F0B0A" d="M27.032,31.195c0.044,0.74-0.083,1.411-0.757,1.862
				C26.278,32.335,26.626,31.753,27.032,31.195z"/>
			<path fill-rule="evenodd" clip-rule="evenodd" fill="#0F0B0A" d="M29.217,23.523c-0.043,0.637,0.278,1.338-0.337,1.87
				C28.804,24.736,28.805,24.092,29.217,23.523z"/>
			<path fill-rule="evenodd" clip-rule="evenodd" fill="#F1DEC6" d="M36.3,45.188c2.781-0.718,2.778-0.718,2.8,2.182
				c0.023,2.902-0.159,5.833,0.146,8.708c0.229,2.12-0.805,2.626-2.432,2.898c-0.415,0.069-0.842,0.079-1.265,0.113
				c-1.684,0.295-3.383,0.064-5.075,0.133c-1.396,0.056-1.505-1.051-1.646-1.974c-0.338-2.229-0.155-4.484-0.145-6.725
				c0.008-1.503-0.272-3.039,0.327-4.5c0.43-0.594,1.02-0.443,1.623-0.397c1.486,0.108,2.976,0.214,4.449-0.135
				C35.477,45.349,35.915,45.377,36.3,45.188z"/>
			<path fill-rule="evenodd" clip-rule="evenodd" fill="#39312B" d="M36.195,44.045c-0.851,0.124-1.703,0.251-2.556,0.373
				c-1.441,0.342-2.895,0.157-4.346,0.105c-0.56-0.581-0.609-1.316-0.55-2.05c0.535-6.553,2.076-12.958,2.836-19.478
				c0.555-0.7,1.454-0.043,2.067-0.523c0.118,0.001,0.238,0,0.355-0.004c0.802,0.008,0.472,0.63,0.537,1.019
				c0.105,0.631-0.178,1.304,0.192,1.912c-0.063,0.856,0.199,1.61,0.513,2.414c1.101,2.824,2.051,5.705,3.112,8.542
				c0.672,1.795,0.219,3.718,0.74,5.529c0.199,0.698-0.298,1.108-0.927,1.345C37.506,43.48,36.751,43.521,36.195,44.045z"/>
			<path fill-rule="evenodd" clip-rule="evenodd" fill="#322B26" d="M31.811,22.837c0.096,4.03-0.9,7.913-1.531,11.851
				c-0.516,3.216-1.072,6.443-1.029,9.725c-0.121,0.144-0.245,0.146-0.371,0.006c-0.608-0.001-1.217-0.005-1.825-0.006
				c-0.734-0.899-0.565-1.969-0.474-2.979c0.362-4.005,1.056-7.945,2.321-11.771c0.304-0.918,0.597-1.823,0.357-2.805
				c0-0.302,0.062-0.573,0.354-0.733c0.477-0.671-0.09-1.519,0.366-2.194l0.001,0.001c0.571-0.333-0.45-1.857,1.095-1.463v0
				C31.262,22.709,31.632,22.579,31.811,22.837z"/>
			<path fill-rule="evenodd" clip-rule="evenodd" fill="#D4C2AD" d="M29.299,45.968c-0.016,3.454-0.077,6.909-0.035,10.363
				c0.031,2.57,0.239,2.705,2.836,2.711c1.151,0.004,2.3,0.03,3.45,0.048c-2.992,0.657-5.938,0.39-8.854-0.445
				c-0.352-0.37-0.531-0.823-0.529-1.323c0.013-3.154-0.221-6.314,0.031-9.462C26.375,45.628,27.334,45.111,29.299,45.968z"/>
			<path fill-rule="evenodd" clip-rule="evenodd" fill="#292320" d="M29.26,26.858c0.629,0.903,0.348,1.824,0.095,2.768
				c-1.29,4.848-2.417,9.72-2.3,14.786c-1.375,0.047-1.884-0.588-1.858-1.979c0.052-2.845,0.831-5.536,1.492-8.259
				C27.624,31.762,28.67,29.39,29.26,26.858z"/>
			<path fill-rule="evenodd" clip-rule="evenodd" fill="#BAAA97" d="M29.299,45.968c-2.346-0.148-2.582,0.052-2.6,2.473
				c-0.025,3.402-0.005,6.801-0.003,10.204c-0.43,0.146-0.714-0.105-0.996-0.362c0.069-2.438-0.097-4.861-0.514-7.267
				c-0.622-1.95-0.071-3.892,0.059-5.837c0.001-0.019,0.22-0.019,0.341-0.021c0.069,0.069,0.147,0.081,0.234,0.042
				c1.611,0.403,3.285-0.156,4.891,0.311c1.22,0.152,2.439,0.214,3.66-0.006c0.378-0.227,0.75-0.264,1.108,0.039
				C33.468,46.405,31.351,45.691,29.299,45.968z"/>
			<path fill-rule="evenodd" clip-rule="evenodd" fill="#362F2A" d="M29.98,60.511c3.001-0.081,6.054,0.43,8.988-1.002
				c-0.321,1.793-1.656,2.739-3.886,2.819c-1.576,0.057-3.156,0.01-4.736,0.008C29.903,61.793,29.49,61.242,29.98,60.511z"/>
			<path fill-rule="evenodd" clip-rule="evenodd" fill="#0F331B" d="M34.362,21.369c-0.24-0.002-0.478-0.004-0.718-0.005
				c-0.462-0.179-0.95-0.208-1.434-0.215c-1.161-0.019-1.738-0.421-1.718-1.753c0.021-1.464,0.959-1.078,1.737-1.127
				c0.246-0.015,0.482-0.027,0.682-0.188c0.244-0.002,0.485-0.005,0.728-0.008c0.674-0.335,0.91,0.043,0.891,0.621
				C34.498,19.585,34.746,20.499,34.362,21.369z"/>
			<path fill-rule="evenodd" clip-rule="evenodd" fill="#0E110E" d="M32.912,18.081c-0.296,0.4-0.736,0.377-1.153,0.359
				c-0.785-0.031-1.058,0.347-1.055,1.101c0,0.755,0.281,1.117,1.062,1.095c0.716-0.019,1.486-0.117,1.879,0.728
				c-0.246,0.246-0.493,0.492-0.74,0.737c-0.486-0.268-0.974-0.807-1.46,0c-0.123,0.123-0.247,0.246-0.369,0.368
				c-1.037-0.013-0.481,1.162-1.095,1.463c-0.023-1.621,0.394-3.194,0.42-4.825C30.43,17.255,32.05,18.405,32.912,18.081z"/>
			<path fill-rule="evenodd" clip-rule="evenodd" fill="#312A26" d="M29.98,60.511c0.123,0.607,0.243,1.218,0.366,1.825
				c-0.867-0.016-1.761,0.141-2.562-0.362c-0.593-0.371-1.099-0.82-0.858-1.605c0.132-0.435,0.489-0.468,0.859-0.225
				C28.517,60.268,29.249,60.389,29.98,60.511z"/>
			<path fill-rule="evenodd" clip-rule="evenodd" fill="#791415" d="M34.308,16.969c-0.35,0.135-0.698,0.269-1.048,0.404
				c-0.888,0.042-2.266,0.749-2.383-0.648c-0.149-1.779,1.493-0.835,2.347-0.988C34.056,15.587,34.961,15.669,34.308,16.969z"/>
			<path fill-rule="evenodd" clip-rule="evenodd" fill="#0F0B0A" d="M34.308,16.969c0.129-0.743-0.098-1.211-0.936-1.081
				c-0.735,0.113-1.625-0.347-2.17,0.425c-0.266,0.375-0.109,0.86,0.439,0.951c0.531,0.088,1.078,0.077,1.619,0.109
				c-0.615,0.585-1.362,0.339-2.052,0.277c-0.652-0.058-0.838-0.574-0.854-1.176c-0.018-0.698,0.336-0.962,0.994-0.957
				c0.72,0.006,1.446,0.046,2.158-0.036C35.09,15.3,35.015,15.949,34.308,16.969z"/>
			<path fill-rule="evenodd" clip-rule="evenodd" fill="#26211E" d="M27.785,60.144c-1.489,0.609,0.049,1.221-0.001,1.83
				c-0.297-0.04-0.648,0.006-0.881-0.137c-0.6-0.372-1.101-1.034-0.793-1.652C26.467,59.466,27.206,59.674,27.785,60.144z"/>
			<path fill-rule="evenodd" clip-rule="evenodd" fill="#771314" d="M31.062,14.426c0.52-0.583,1.217-0.322,1.838-0.354
				c0.349-0.017,0.95-0.221,0.936,0.438c-0.01,0.489-0.466,0.625-0.916,0.635C32.438,14.551,31.329,15.574,31.062,14.426z"/>
			<path fill-rule="evenodd" clip-rule="evenodd" fill="#0E110E" d="M34.362,21.369c-0.313-1.083,0.725-2.461-0.723-3.295
				c0.448-0.45,0.986-0.471,1.021,0.195C34.713,19.296,35.101,20.403,34.362,21.369z"/>
			<path fill-rule="evenodd" clip-rule="evenodd" fill="#0E110E" d="M34.732,25.399c-0.867-0.821,0.142-2.11-0.729-2.931
				c0.621-0.513,0.702-0.031,0.718,0.42C34.751,23.724,34.731,24.562,34.732,25.399z"/>
			<path fill-rule="evenodd" clip-rule="evenodd" fill="#25211C" d="M31.445,22.101c-0.042-0.259-0.609-0.583-0.289-0.644
				c0.609-0.117,1.522-0.492,1.749,0.645C32.419,22.101,31.931,22.101,31.445,22.101z"/>
			<path fill-rule="evenodd" clip-rule="evenodd" fill="#0F0B0A" d="M31.062,14.426c0.446,0.687,1.416,0.023,1.858,0.72
				c-0.536-0.004-1.073,0.029-1.603-0.024C30.851,15.074,30.693,14.825,31.062,14.426z"/>
			<path fill-rule="evenodd" clip-rule="evenodd" fill="#0E110E" d="M31.811,22.837c-0.3-0.014-0.576-0.075-0.734-0.369
				c0.857,0,1.714,0.002,2.571,0.004C33.13,23.073,32.428,22.741,31.811,22.837z"/>
			<path fill-rule="evenodd" clip-rule="evenodd" fill="#0F0B0A" d="M29.98,23.931c-0.118,0.732,0.293,1.553-0.366,2.194
				C29.734,25.393,29.314,24.571,29.98,23.931z"/>
			<path fill-rule="evenodd" clip-rule="evenodd" fill="#23211D" d="M35.479,45.544c-0.37-0.013-0.739-0.026-1.108-0.039
				c0.122-0.12,0.244-0.242,0.365-0.361c0.521,0.015,1.043,0.03,1.564,0.045C36.027,45.307,35.752,45.427,35.479,45.544z"/>
			<path fill-rule="evenodd" clip-rule="evenodd" fill="#4D4B48" d="M25.586,45.158c-0.872,1.149-0.248,2.448-0.36,3.673
				c-0.066,0.724-0.03,1.457-0.04,2.185c-0.104-0.015-0.209-0.032-0.313-0.052c-0.35-0.82-0.214-1.656-0.08-2.493
				c0.011-0.975,0.002-1.949,0.046-2.922C24.861,45.072,24.986,44.615,25.586,45.158z"/>
			<path fill-rule="evenodd" clip-rule="evenodd" fill="#23211D" d="M28.88,44.418c0.124-0.001,0.247-0.003,0.371-0.006
				c1.462,0.001,2.925,0.005,4.389,0.006C32.053,45.012,30.466,45.014,28.88,44.418z"/>
			<path fill-rule="evenodd" clip-rule="evenodd" fill="#23211D" d="M30.71,45.511c-1.639,0.046-3.284,0.181-4.891-0.311
				C27.454,45.261,29.121,44.785,30.71,45.511z"/>
			<path fill-rule="evenodd" clip-rule="evenodd" fill="#090908" d="M24.793,48.471c0.027,0.83,0.052,1.664,0.08,2.493
				c-0.116,0.492,0.201,1.06-0.36,1.616C24.625,51.123,24.156,49.772,24.793,48.471z"/>
			<path fill-rule="evenodd" clip-rule="evenodd" fill="#5C5551" d="M37.279,37.869c0.017,0.84-0.226,1.501-0.909,1.533
				c-0.578,0.025-0.867-0.594-0.892-1.198c-0.092-2.331-0.708-4.539-1.542-6.701c-0.16-0.42-0.567-0.965,0.104-1.249
				c0.576-0.244,0.818,0.299,1.099,0.706C36.613,33.092,36.707,35.635,37.279,37.869z"/>
		</g>
	</g>
	<g id="UcLiwa_4_">
		<g>
			<path fill="#FFFFFF" d="M14.374,54.293c-2.071,0,7.741,0,6.219,0c-0.116-0.208-0.096-0.402,0.059-0.582
				c0.291-0.322,0.647-0.576,1.052-0.697c2.692-0.797,3.292-2.652,3.176-5.291c-0.2-4.606-0.247-9.238-0.001-13.838
				c0.242-4.539-0.884-8.645-2.886-12.609c-0.41-0.813-0.767-1.651-1.039-2.522c-0.833-4.246-0.804-8.557-0.992-12.848
				c-0.324-0.532-0.502-1.143-0.871-1.65c-0.876-0.604-1.808-0.351-2.732-0.18c-0.369,0.11-0.727,0.235-0.96,0.575
				c-0.243,1.224-0.483,2.443-0.305,3.699c0.102,0.552,0.096,1.102-0.022,1.649c-0.391,1.174-0.11,2.406-0.295,3.597
				c-0.022,0.182-0.064,0.36-0.115,0.535c-0.222,0.597-0.189,1.235-0.304,1.851c-0.463,1.919-1.021,3.809-1.797,5.629
				c-0.346,0.61-0.631,1.246-0.796,1.935c-0.045,0.18-0.106,0.353-0.175,0.524c-1.163,2.958-1.812,6.029-2.022,9.198
				c-0.26,2.162-0.339,4.317,0.077,6.469c0.283,3.374,0.49,6.752,0.627,10.131c0.303,1.854,1.173,3.139,3.233,3.278
				c0.423,0.029,0.832,0.182,1.018,0.637C14.561,53.979,14.511,54.148,14.374,54.293z"/>
			<path fill-rule="evenodd" clip-rule="evenodd" fill="#B0B0B0" d="M18.763,54.293c-0.854,0-1.707,0-2.56,0
				c-0.12-0.204-0.088-0.38,0.096-0.53c0.79-0.397,1.579-0.397,2.369-0.001C18.851,53.91,18.883,54.089,18.763,54.293z"/>
			<path fill-rule="evenodd" clip-rule="evenodd" fill="#DFDFDF" d="M16.19,53.967c0.01,0.108,0.014,0.217,0.012,0.326
				c-0.61,0-1.219,0-1.829,0c0.006-0.137,0.01-0.274,0.016-0.413C15.015,53.411,15.617,53.405,16.19,53.967z"/>
			<path fill-rule="evenodd" clip-rule="evenodd" fill="#BFBEBE" d="M18.763,54.293c0.003-0.103,0.004-0.206,0.006-0.31
				c0.606-0.59,1.218-0.578,1.837-0.02c0.004,0.109-0.001,0.22-0.013,0.329C19.982,54.293,19.374,54.293,18.763,54.293z"/>
			<path fill-rule="evenodd" clip-rule="evenodd" fill="#090908" d="M20.606,53.964c-0.613,0.007-1.225,0.015-1.837,0.02
				c-0.859-0.005-1.718-0.011-2.578-0.017c-0.601-0.029-1.201-0.057-1.801-0.087c-2.046-0.444-4.346-0.566-4.443-3.491
				c-0.275-2.211-0.114-4.413-0.1-6.829c0.965,1.012,0.954,1.012,1.009,2.124c0.041,0.779-0.131,1.581,0.215,2.328
				c0.236,0.475,0.649,0.675,1.153,0.733c2.756,0.723,5.536,0.926,8.351,0.431c0.589-0.141,1.193-0.213,1.78-0.38
				c0.864-0.245,1.351-0.772,1.361-1.696c0.039-3.342,0.039-6.684,0.003-10.024c-0.021-1.938-1.396-0.887-2.251-0.965
				c-0.499,0.012-0.993-0.005-1.443-0.257c-0.598-1.143,0.828-1.009,1.036-1.646c2.146-0.691,2.799-1.934,2.457-4.325
				c-0.531-3.727-2.112-7.047-3.257-10.536c-0.358-1.091-0.933-2.113-0.867-3.31c-0.151-0.882,0.428-1.881-0.432-2.644
				c-0.156-0.011-0.307-0.023-0.462-0.021c-0.666,0.002-1.333,0.081-1.984-0.125c-0.161-0.071-0.29-0.183-0.39-0.327
				c-0.006-0.292,0.163-0.464,0.404-0.583c0.375-0.15,0.781-0.142,1.167-0.235c0.367-0.092,0.636-0.368,0.968-0.525
				c0.196-0.104,0.389-0.215,0.55-0.371c0.071-0.838,0.837-1.85-0.606-2.271c-0.252,0.042-0.502,0.073-0.756,0.091
				c-1.476-0.192-2.096,0.421-1.921,1.924c0.12,1.027-0.306,2.009-0.411,3.023c-0.029,0.175-0.075,0.346-0.125,0.515
				c-0.254,0.668-0.184,1.394-0.36,2.075c-0.086,0.352-0.174,0.702-0.25,1.057c-0.445,1.942-1.188,3.783-1.916,5.628
				c-0.236,0.6-0.404,1.289-1.158,1.507c-0.646-0.278-0.463-0.758-0.3-1.232l-0.011,0.026c0.427-0.55,0.485-1.25,0.757-1.862
				c0.616-1.935,1.232-3.869,1.848-5.802c0.438-0.564-0.026-1.291,0.337-1.869l-0.011,0.026c0.574-1.349-0.061-2.805,0.37-4.168
				c0.001-0.534,0.002-1.067,0.003-1.602c0.321-1.348,0.058-2.752,0.397-4.098c0.166-0.59,0.651-0.341,1.023-0.387
				c1.094-0.218,2.186-0.275,3.275,0.028c0.658,0.298,0.332,1.131,0.824,1.521c0.458,2.945-0.062,5.928,0.358,8.878
				c0.219,1.534,0.205,3.107,0.806,4.573c1.572,3.668,3.854,7.103,3.968,11.262c0.088,3.165-0.009,6.333,0.006,9.5
				c0.014,2.985-0.087,5.982,0.154,8.948c0.198,2.435-0.781,3.875-2.902,4.741C21.958,53.506,21.277,53.724,20.606,53.964z"/>
			<path fill-rule="evenodd" clip-rule="evenodd" fill="#0F0B0A" d="M21.322,34.534c-0.184,0.771-1.091,0.577-1.461,1.099
				c-0.078,0.334-0.289,0.551-0.6,0.678c-1.122,0.289-2.251,0.21-3.381,0.058c-1.422-0.437-2.888-0.142-4.327-0.258
				c-0.171,0.005-0.345-0.002-0.513,0c-1.208,0.719-0.278,2.001-0.765,2.903c-0.19,1.164-0.38,2.328-0.486,3.117
				c-0.045,0.626,0.373,0.289,0.138,0.358c-0.07,0.021-0.098-0.029-0.1-0.153c-0.007-0.352-0.101-0.73,0.305-0.956
				c0.218,0.021,0.378,0.124,0.491,0.311c0.836,2.342,0.95,4.698,0.202,7.081c-1.095-1.429-0.054-3.133-0.879-4.638
				c0,2.085,0,4.17,0,6.255c-0.25-3.546-0.499-7.095-0.749-10.643c-0.196-2.248-0.207-4.498,0.006-6.745
				c0.035-3.323,0.719-6.495,2.209-9.479c0.056,0.408-0.039,0.869,0.402,1.142c0.526,0.767,0.105,1.524-0.062,2.261
				c-0.414,1.828-0.839,3.652-0.893,5.534c-0.028,0.983,0.173,1.835,1.396,1.93c0.592,0.003,1.179,0.049,1.758,0.166
				c1.563,0.347,3.127,0.332,4.692,0.003C19.577,34.474,20.446,33.897,21.322,34.534z"/>
			<path fill-rule="evenodd" clip-rule="evenodd" fill="#0F0B0A" d="M21.39,18.786c-0.977-1.646-1.07-3.506-1.138-5.327
				c-0.099-2.705-0.026-5.416-0.026-8.125c0.63,0.665,0.305,1.484,0.325,2.229C20.649,11.319,20.786,15.069,21.39,18.786z"/>
			<path fill-rule="evenodd" clip-rule="evenodd" fill="#4D4B48" d="M9.203,33.001c0.167,2.248,0.217,4.497-0.006,6.745
				C8.943,37.498,8.801,35.248,9.203,33.001z"/>
			<path fill-rule="evenodd" clip-rule="evenodd" fill="#0F0B0A" d="M15.104,4.172C14.987,5.54,15.42,6.96,14.706,8.27
				C14.5,6.871,14.47,5.489,15.104,4.172z"/>
			<path fill-rule="evenodd" clip-rule="evenodd" fill="#0F0B0A" d="M14.703,9.872c-0.118,1.391,0.455,2.842-0.37,4.168
				C14.426,12.648,14.317,11.239,14.703,9.872z"/>
			<path fill-rule="evenodd" clip-rule="evenodd" fill="#0F0B0A" d="M19.402,3.813c-1.091-0.009-2.184-0.019-3.275-0.028
				C17.222,3.366,18.316,3.094,19.402,3.813z"/>
			<path fill-rule="evenodd" clip-rule="evenodd" fill="#0F0B0A" d="M12.158,21.685c0.042,0.741-0.084,1.413-0.757,1.862
				C11.404,22.825,11.751,22.243,12.158,21.685z"/>
			<path fill-rule="evenodd" clip-rule="evenodd" fill="#0F0B0A" d="M14.343,14.014c-0.044,0.636,0.278,1.337-0.337,1.869
				C13.93,15.227,13.93,14.583,14.343,14.014z"/>
			<path fill-rule="evenodd" clip-rule="evenodd" fill="#F1DEC6" d="M21.424,35.679c2.783-0.719,2.779-0.719,2.801,2.182
				c0.022,2.904-0.16,5.833,0.148,8.707c0.227,2.12-0.808,2.628-2.434,2.897c-0.416,0.07-0.841,0.078-1.263,0.114
				c-1.685,0.294-3.384,0.064-5.076,0.134c-1.396,0.058-1.505-1.052-1.645-1.974c-0.339-2.229-0.158-4.482-0.146-6.725
				c0.007-1.504-0.272-3.038,0.327-4.502c0.428-0.591,1.019-0.439,1.623-0.396c1.485,0.109,2.975,0.214,4.448-0.135
				C20.602,35.838,21.041,35.867,21.424,35.679z"/>
			<path fill-rule="evenodd" clip-rule="evenodd" fill="#39312B" d="M21.322,34.534c-0.852,0.126-1.705,0.249-2.558,0.375
				c-1.441,0.34-2.895,0.153-4.345,0.104c-0.56-0.581-0.609-1.316-0.549-2.051c0.534-6.552,2.075-12.958,2.835-19.477
				c0.556-0.699,1.455-0.043,2.067-0.523c0.119,0,0.238,0,0.356-0.005c0.802,0.008,0.472,0.63,0.537,1.018
				c0.105,0.632-0.178,1.305,0.193,1.913c-0.063,0.856,0.198,1.61,0.512,2.414c1.103,2.823,2.051,5.705,3.114,8.543
				c0.672,1.795,0.219,3.717,0.738,5.527c0.201,0.699-0.299,1.11-0.925,1.344C22.63,33.968,21.875,34.01,21.322,34.534z"/>
			<path fill-rule="evenodd" clip-rule="evenodd" fill="#322B26" d="M16.935,13.327c0.097,4.03-0.898,7.914-1.53,11.852
				c-0.515,3.215-1.072,6.441-1.029,9.723c-0.12,0.145-0.244,0.147-0.37,0.008c-0.609-0.003-1.217-0.006-1.825-0.008
				c-0.734-0.899-0.566-1.969-0.475-2.978c0.362-4.002,1.055-7.945,2.32-11.771c0.304-0.919,0.598-1.823,0.359-2.804
				c0-0.302,0.061-0.573,0.353-0.733c0.475-0.671-0.091-1.518,0.367-2.194v0.001c0.572-0.333-0.448-1.856,1.094-1.463l0.001-0.001
				C16.386,13.199,16.758,13.07,16.935,13.327z"/>
			<path fill-rule="evenodd" clip-rule="evenodd" fill="#D4C2AD" d="M14.425,36.458c-0.016,3.453-0.077,6.909-0.036,10.363
				c0.031,2.57,0.239,2.706,2.835,2.711c1.15,0.003,2.301,0.03,3.452,0.047c-2.993,0.658-5.939,0.391-8.856-0.445
				c-0.35-0.371-0.53-0.822-0.528-1.322c0.013-3.154-0.221-6.315,0.029-9.462C11.5,36.118,12.46,35.601,14.425,36.458z"/>
			<path fill-rule="evenodd" clip-rule="evenodd" fill="#292320" d="M14.386,17.348c0.628,0.903,0.346,1.824,0.095,2.768
				c-1.291,4.846-2.417,9.719-2.3,14.785c-1.375,0.048-1.885-0.588-1.859-1.979c0.053-2.845,0.831-5.537,1.492-8.259
				C12.75,22.252,13.795,19.88,14.386,17.348z"/>
			<path fill-rule="evenodd" clip-rule="evenodd" fill="#BAAA97" d="M14.425,36.458c-2.345-0.148-2.583,0.052-2.601,2.473
				c-0.025,3.402-0.005,6.803-0.005,10.203c-0.429,0.147-0.712-0.104-0.994-0.362c0.068-2.438-0.097-4.861-0.515-7.266
				c-0.622-1.95-0.07-3.892,0.059-5.836c0.001-0.021,0.219-0.021,0.342-0.021c0.069,0.068,0.146,0.081,0.234,0.04
				c1.611,0.405,3.283-0.155,4.89,0.311c1.221,0.154,2.44,0.215,3.66-0.005c0.378-0.227,0.75-0.262,1.11,0.041
				C18.594,36.896,16.476,36.181,14.425,36.458z"/>
			<path fill-rule="evenodd" clip-rule="evenodd" fill="#362F2A" d="M15.105,51.002c3.001-0.083,6.056,0.43,8.988-1.003
				c-0.32,1.792-1.656,2.739-3.885,2.82c-1.576,0.057-3.157,0.008-4.735,0.006C15.029,52.282,14.616,51.732,15.105,51.002z"/>
			<path fill-rule="evenodd" clip-rule="evenodd" fill="#0F331B" d="M19.488,11.859c-0.239-0.002-0.478-0.003-0.717-0.005
				c-0.462-0.179-0.951-0.207-1.435-0.215c-1.161-0.019-1.738-0.421-1.718-1.751c0.022-1.465,0.959-1.079,1.737-1.128
				c0.246-0.016,0.482-0.028,0.682-0.188c0.243-0.002,0.485-0.005,0.728-0.007c0.674-0.336,0.911,0.043,0.89,0.62
				C19.623,10.075,19.872,10.989,19.488,11.859z"/>
			<path fill-rule="evenodd" clip-rule="evenodd" fill="#0E110E" d="M18.037,8.571c-0.296,0.4-0.735,0.377-1.153,0.36
				c-0.784-0.032-1.057,0.346-1.055,1.1c0.002,0.756,0.282,1.118,1.063,1.096c0.716-0.02,1.487-0.118,1.878,0.727
				c-0.246,0.246-0.493,0.492-0.74,0.737c-0.486-0.268-0.973-0.806-1.46,0c-0.123,0.123-0.247,0.246-0.37,0.369
				c-1.035-0.013-0.479,1.162-1.094,1.463c-0.024-1.619,0.395-3.194,0.42-4.825C15.555,7.746,17.177,8.895,18.037,8.571z"/>
			<path fill-rule="evenodd" clip-rule="evenodd" fill="#312A26" d="M15.105,51.002c0.123,0.608,0.245,1.216,0.367,1.823
				c-0.869-0.015-1.762,0.142-2.563-0.359c-0.592-0.373-1.099-0.821-0.858-1.607c0.133-0.435,0.489-0.467,0.86-0.224
				C13.643,50.757,14.374,50.88,15.105,51.002z"/>
			<path fill-rule="evenodd" clip-rule="evenodd" fill="#791415" d="M19.434,7.459c-0.35,0.134-0.699,0.269-1.049,0.404
				c-0.888,0.042-2.266,0.748-2.382-0.649c-0.149-1.777,1.493-0.834,2.345-0.987C19.18,6.077,20.086,6.159,19.434,7.459z"/>
			<path fill-rule="evenodd" clip-rule="evenodd" fill="#0F0B0A" d="M19.434,7.459c0.128-0.744-0.1-1.212-0.938-1.082
				c-0.733,0.114-1.623-0.347-2.169,0.427c-0.266,0.374-0.109,0.859,0.439,0.949c0.532,0.088,1.079,0.077,1.62,0.109
				c-0.615,0.584-1.363,0.339-2.052,0.277c-0.654-0.058-0.839-0.574-0.854-1.176c-0.018-0.698,0.335-0.962,0.992-0.956
				c0.72,0.006,1.447,0.045,2.159-0.037C20.215,5.791,20.14,6.439,19.434,7.459z"/>
			<path fill-rule="evenodd" clip-rule="evenodd" fill="#26211E" d="M12.912,50.635c-1.49,0.607,0.049,1.22-0.002,1.831
				c-0.297-0.041-0.647,0.004-0.88-0.139c-0.601-0.372-1.102-1.034-0.794-1.652C11.593,49.957,12.332,50.164,12.912,50.635z"/>
			<path fill-rule="evenodd" clip-rule="evenodd" fill="#771314" d="M16.188,4.916c0.519-0.583,1.216-0.322,1.837-0.353
				C18.373,4.545,18.975,4.341,18.961,5c-0.009,0.49-0.467,0.625-0.917,0.636C17.562,5.042,16.454,6.063,16.188,4.916z"/>
			<path fill-rule="evenodd" clip-rule="evenodd" fill="#0E110E" d="M19.488,11.859c-0.314-1.082,0.724-2.461-0.723-3.295
				c0.447-0.451,0.987-0.471,1.021,0.194C19.839,9.786,20.226,10.893,19.488,11.859z"/>
			<path fill-rule="evenodd" clip-rule="evenodd" fill="#0E110E" d="M19.858,15.889c-0.868-0.822,0.142-2.11-0.729-2.931
				c0.62-0.513,0.702-0.031,0.719,0.42C19.876,14.214,19.857,15.052,19.858,15.889z"/>
			<path fill-rule="evenodd" clip-rule="evenodd" fill="#25211C" d="M16.57,12.59c-0.04-0.259-0.608-0.583-0.289-0.644
				c0.61-0.117,1.522-0.491,1.749,0.645C17.543,12.591,17.057,12.59,16.57,12.59z"/>
			<path fill-rule="evenodd" clip-rule="evenodd" fill="#0F0B0A" d="M16.188,4.916c0.446,0.687,1.415,0.023,1.857,0.721
				c-0.534-0.005-1.072,0.028-1.602-0.025C15.976,5.564,15.819,5.315,16.188,4.916z"/>
			<path fill-rule="evenodd" clip-rule="evenodd" fill="#0E110E" d="M16.935,13.327c-0.299-0.014-0.575-0.074-0.733-0.369
				c0.856,0.001,1.714,0.003,2.571,0.005C18.255,13.563,17.553,13.23,16.935,13.327z"/>
			<path fill-rule="evenodd" clip-rule="evenodd" fill="#0F0B0A" d="M15.106,14.421c-0.118,0.731,0.292,1.552-0.367,2.194
				C14.859,15.883,14.439,15.062,15.106,14.421z"/>
			<path fill-rule="evenodd" clip-rule="evenodd" fill="#23211D" d="M20.605,36.035c-0.371-0.014-0.74-0.027-1.11-0.041
				c0.122-0.119,0.244-0.241,0.366-0.361c0.521,0.016,1.042,0.03,1.563,0.046C21.15,35.797,20.878,35.915,20.605,36.035z"/>
			<path fill-rule="evenodd" clip-rule="evenodd" fill="#4D4B48" d="M10.712,35.648c-0.872,1.148-0.249,2.447-0.361,3.673
				c-0.066,0.724-0.03,1.457-0.04,2.185c-0.105-0.016-0.209-0.032-0.312-0.051c-0.351-0.821-0.213-1.658-0.08-2.495
				c0.012-0.973,0.004-1.947,0.047-2.922C9.987,35.562,10.112,35.105,10.712,35.648z"/>
			<path fill-rule="evenodd" clip-rule="evenodd" fill="#23211D" d="M14.006,34.909c0.123-0.003,0.247-0.004,0.37-0.008
				c1.463,0.002,2.926,0.005,4.389,0.008C17.178,35.501,15.592,35.503,14.006,34.909z"/>
			<path fill-rule="evenodd" clip-rule="evenodd" fill="#23211D" d="M15.835,35.999c-1.639,0.047-3.284,0.182-4.889-0.311
				C12.578,35.751,14.246,35.275,15.835,35.999z"/>
			<path fill-rule="evenodd" clip-rule="evenodd" fill="#090908" d="M9.918,38.96c0.027,0.834,0.054,1.664,0.08,2.495
				c-0.116,0.491,0.201,1.059-0.36,1.615C9.751,41.612,9.281,40.262,9.918,38.96z"/>
			<path fill-rule="evenodd" clip-rule="evenodd" fill="#5C5551" d="M22.404,28.359c0.017,0.841-0.226,1.502-0.909,1.533
				c-0.578,0.026-0.868-0.594-0.891-1.196c-0.092-2.333-0.709-4.541-1.542-6.704c-0.162-0.42-0.569-0.964,0.103-1.248
				c0.579-0.245,0.819,0.299,1.1,0.706C21.739,23.581,21.832,26.125,22.404,28.359z"/>
		</g>
	</g>
</g>
</svg>
